<?xml version="1.0" standalone="no"?>
<!DOCTYPE svg PUBLIC "-//W3C//DTD SVG 20010904//EN"
 "http://www.w3.org/TR/2001/REC-SVG-20010904/DTD/svg10.dtd">
<svg version="1.0" xmlns="http://www.w3.org/2000/svg"
 width="319.000000pt" height="319.000000pt" viewBox="0 0 319.000000 319.000000"
 preserveAspectRatio="xMidYMid meet">
<metadata>
Created by potrace 1.11, written by Peter Selinger 2001-2013
</metadata>
<g transform="translate(0.000000,319.000000) scale(0.100000,-0.100000)"
fill="#000000" stroke="none">
<path d="M9 2723 c-1 -5 -2 -52 -2 -106 l-2 -98 35 -32 c19 -18 69 -59 110
-92 41 -33 86 -69 100 -81 14 -12 97 -81 185 -153 88 -72 169 -139 180 -149
42 -39 304 -252 310 -252 3 0 17 -12 31 -27 13 -14 37 -36 53 -47 16 -12 130
-104 253 -206 122 -102 231 -192 242 -200 10 -8 32 -27 48 -42 17 -16 34 -28
40 -28 5 0 44 28 85 62 42 35 129 106 193 159 65 52 124 102 133 110 9 7 31
26 49 40 18 15 114 93 213 175 99 82 230 190 290 239 61 49 112 92 115 95 3 3
41 35 85 70 44 36 89 73 100 82 11 9 30 25 41 35 12 10 37 30 55 45 19 15 79
64 134 110 l99 83 -1 90 c0 50 -1 98 -2 108 -1 16 -20 17 -250 17 l-250 0 -94
-77 c-51 -43 -113 -94 -137 -113 -24 -19 -48 -40 -54 -45 -6 -6 -33 -28 -61
-50 -27 -22 -52 -42 -55 -45 -3 -3 -81 -68 -175 -145 -93 -76 -186 -153 -206
-169 -114 -98 -297 -246 -304 -246 -7 0 -171 133 -299 241 -17 14 -98 81 -181
148 -82 67 -168 138 -190 157 -22 18 -51 43 -65 54 -14 11 -38 32 -55 45 -16
14 -46 38 -65 54 -19 16 -79 65 -133 110 l-98 81 -250 0 c-137 0 -249 -3 -250
-7z"/>
<path d="M6 2110 c1 -170 2 -314 3 -319 1 -8 60 -60 226 -196 87 -71 297 -245
436 -359 202 -168 229 -190 246 -199 8 -5 27 -21 41 -36 15 -14 50 -44 77 -66
28 -22 52 -42 55 -45 3 -3 41 -35 85 -70 44 -36 89 -73 100 -82 20 -17 32 -27
102 -84 21 -18 78 -65 128 -107 l89 -74 61 49 c33 28 80 67 105 87 25 21 104
86 175 145 72 59 139 115 150 124 11 9 43 35 70 57 28 22 61 50 75 62 22 19
275 228 385 318 22 18 114 94 205 169 91 75 172 142 180 149 59 48 176 142
179 144 8 5 6 635 -2 640 -4 2 -34 -17 -66 -44 -32 -26 -140 -115 -240 -198
-99 -82 -181 -155 -181 -161 0 -7 -11 -19 -25 -28 -13 -9 -39 -29 -57 -45 -29
-26 -187 -157 -417 -345 -41 -34 -90 -75 -110 -92 -20 -17 -74 -61 -121 -99
-47 -38 -94 -77 -105 -86 -114 -98 -253 -209 -262 -209 -5 0 -22 12 -39 28
-17 15 -89 74 -160 132 -70 58 -184 152 -253 209 -69 57 -144 118 -166 136
-35 29 -280 230 -404 333 -25 21 -50 43 -55 50 -32 40 -73 75 -437 375 -32 26
-62 47 -66 47 -4 0 -7 -139 -7 -310z"/>
<path d="M9 1668 c0 -7 -1 -280 -2 -606 l-2 -592 245 2 245 3 2 380 c1 218 -3
395 -8 415 -8 27 -31 52 -102 110 -51 41 -154 125 -229 187 -75 62 -140 113
-143 113 -3 0 -5 -6 -6 -12z"/>
<path d="M3129 1647 c-14 -12 -56 -47 -93 -77 -38 -30 -78 -63 -90 -73 -11
-11 -74 -62 -138 -115 l-118 -96 0 -408 0 -408 245 0 c135 0 245 3 246 8 1 9
1 1152 0 1175 -1 23 -21 21 -52 -6z"/>
</g>
</svg>
